<?xml version="1.0" encoding="UTF-8"?>
<svg version="1.1" xmlns="http://www.w3.org/2000/svg" width="227" height="128">
<path d="M0 0 C11.7975691 12.52402039 8.33909055 33.64091007 7.9765625 49.39501953 C7.89893919 52.78667312 7.83148714 56.17841224 7.765625 59.5703125 C6.91509939 101.02087814 6.91509939 101.02087814 2.73388672 106.62036133 C-9.81437659 116.50532485 -31.93184419 114.33976452 -46.8515625 114.37109375 C-49.40862705 114.3939179 -51.96567553 114.41861126 -54.52270508 114.44506836 C-61.90051771 114.51279566 -69.27790869 114.53955393 -76.65596771 114.55410767 C-79.4443292 114.56014884 -82.23267983 114.56892117 -85.02103424 114.57757092 C-102.25633301 114.6300966 -119.49128161 114.62285176 -136.7265625 114.55859375 C-137.0565625 113.89859375 -137.3865625 113.23859375 -137.7265625 112.55859375 C-138.0565625 113.21859375 -138.3865625 113.87859375 -138.7265625 114.55859375 C-139.3865625 114.55859375 -140.0465625 114.55859375 -140.7265625 114.55859375 C-141.0565625 113.89859375 -141.3865625 113.23859375 -141.7265625 112.55859375 C-142.0565625 113.21859375 -142.3865625 113.87859375 -142.7265625 114.55859375 C-146.70545696 114.00339917 -150.01408845 113.04358337 -153.7265625 111.55859375 C-160.00038537 110.22186944 -166.37514258 110.22877885 -172.76367188 110.04101562 C-181.59856911 109.70244039 -191.0285067 108.98185752 -197.7265625 102.55859375 C-198.6015625 99.49609375 -198.6015625 99.49609375 -198.7265625 95.55859375 C-199.0896857 93.66044977 -199.4659017 91.76478717 -199.8515625 89.87109375 C-200.9274683 83.61343578 -200.54889251 77.82608191 -199.7265625 71.55859375 C-197.7465625 71.06359375 -197.7465625 71.06359375 -195.7265625 70.55859375 C-195.6646875 69.81609375 -195.6028125 69.07359375 -195.5390625 68.30859375 C-194.48471112 64.74001985 -192.72746477 63.63614147 -189.7265625 61.55859375 C-189.89414063 61.01460938 -190.06171875 60.470625 -190.234375 59.91015625 C-190.99451645 56.27836934 -190.63692906 52.70957761 -190.46875 49.01953125 C-190.55382812 48.20742188 -190.63890625 47.3953125 -190.7265625 46.55859375 C-191.7165625 45.89859375 -192.7065625 45.23859375 -193.7265625 44.55859375 C-193.7265625 43.89859375 -193.7265625 43.23859375 -193.7265625 42.55859375 C-194.3865625 42.55859375 -195.0465625 42.55859375 -195.7265625 42.55859375 C-195.91992188 41.77355469 -196.11328125 40.98851562 -196.3125 40.1796875 C-196.57289063 39.12910156 -196.83328125 38.07851563 -197.1015625 36.99609375 C-197.37355469 35.89652344 -197.64554688 34.79695313 -197.92578125 33.6640625 C-198.51988417 31.36010239 -199.19576383 29.07690534 -199.9140625 26.80859375 C-200.94593384 22.6811084 -201.20717397 19.81543822 -200.7265625 15.55859375 C-195.93924557 8.03566714 -185.03779967 6.77571102 -176.9140625 4.93359375 C-156.91483117 0.92939509 -136.84376418 0.4299261 -116.49609375 0.56640625 C-115.27549255 0.57421112 -114.05489136 0.58201599 -112.79730225 0.59005737 C-107.79920255 0.62634529 -102.80131888 0.6679197 -97.8034668 0.72998047 C-80.34928062 0.93348117 -63.36826575 0.00789616 -46.0362854 -2.0660553 C-40.5257182 -2.69100086 -35.00238887 -3.16168919 -29.4765625 -3.62890625 C-28.47293671 -3.71513748 -27.46931091 -3.80136871 -26.43527222 -3.89021301 C-6.65729409 -5.55778624 -6.65729409 -5.55778624 0 0 Z " fill="#C26D34" transform="translate(213.7265625,10.44140625)"/>
<path d="M0 0 C5.94 0 11.88 0 18 0 C20.19048883 6.37398829 22.37868468 12.74872566 24.5625 19.125 C24.88302338 20.06061768 25.20354675 20.99623535 25.53378296 21.96020508 C29.53651901 33.65486622 33.49965704 45.35261126 37.13305664 57.16845703 C38.02807097 60.87637077 38.02807097 60.87637077 40 64 C40.18934616 63.41943344 40.37869232 62.83886688 40.57377625 62.2407074 C42.56903044 56.12325423 44.56496832 50.00602441 46.5612793 43.88891602 C47.30331182 41.61488312 48.04517789 39.34079589 48.78686523 37.06665039 C52.82074229 24.69845148 56.86649349 12.33529656 61 0 C67.27 0 73.54 0 80 0 C80.39389609 9.81492675 80.7855687 19.62993558 81.17345428 29.44510174 C81.3536999 34.00390255 81.53487499 38.56266227 81.71826172 43.12133789 C81.89559131 47.53033125 82.07036516 51.93941951 82.24345398 56.34858131 C82.30953657 58.02089789 82.37650105 59.69317989 82.44441223 61.3654232 C82.83180484 70.92042268 83.07308222 80.43536482 83 90 C79.04 90 75.08 90 71 90 C70.34 64.59 69.68 39.18 69 13 C68.34 13 67.68 13 67 13 C66.885354 13.99588135 66.77070801 14.9917627 66.65258789 16.01782227 C66.07034558 20.06711921 64.88463755 23.85473133 63.55859375 27.71484375 C63.31498611 28.44000687 63.07137848 29.16516998 62.82038879 29.91230774 C62.0316922 32.25597088 61.23466403 34.59670501 60.4375 36.9375 C59.89295094 38.55090312 59.34900922 40.16451136 58.80566406 41.77832031 C57.72002671 45.00077155 56.63150055 48.22222256 55.54052734 51.44287109 C53.4211545 57.70442309 51.33517165 63.97698303 49.25 70.25 C48.60956006 72.17193668 47.96895677 74.09381894 47.328125 76.015625 C46.88984375 77.33046875 46.4515625 78.6453125 46 80 C42.04 80 38.08 80 34 80 C30.1413392 70.84260404 27.14887405 61.45602904 24.125 52 C23.36196453 49.62324434 22.59789183 47.24682579 21.83319092 44.87060547 C21.32635316 43.29563318 20.82020405 41.7204391 20.3147583 40.14501953 C18.99581897 36.04471637 17.65470743 31.9531569 16.28027344 27.87109375 C16.0017453 27.04351562 15.72321716 26.2159375 15.43624878 25.36328125 C14.90088129 23.77770463 14.36284563 22.19302575 13.82180786 20.609375 C12 15.21783649 12 15.21783649 12 13 C11.34 13 10.68 13 10 13 C10.01160156 14.09860352 10.02320312 15.19720703 10.03515625 16.32910156 C10.14354902 31.81884595 9.57919056 47.27317316 9 62.75 C8.9033153 65.4049359 8.80695893 68.05988378 8.7109375 70.71484375 C8.4777354 77.14337324 8.24011835 83.57172528 8 90 C4.37 90 0.74 90 -3 90 C-3.27333034 70.47159872 -2.88757355 51.01278561 -2.0625 31.5 C-2.01893372 30.4488501 -1.97536743 29.3977002 -1.93048096 28.31469727 C-1.80322142 25.28249759 -1.67052016 22.25059783 -1.53515625 19.21875 C-1.49655991 18.31987061 -1.45796356 17.42099121 -1.41819763 16.49487305 C-1.15952513 10.96035728 -0.66465869 5.50091152 0 0 Z " fill="#FDFAF8" transform="translate(109,20)"/>
<path d="M0 0 C3.63 0 7.26 0 11 0 C11.09303144 9.21485876 11.16393197 18.42955372 11.20724869 27.64478111 C11.22804759 31.92465277 11.2562227 36.20420109 11.30175781 40.48388672 C11.34549267 44.62066411 11.36919487 48.75713218 11.37950897 52.89412308 C11.38685112 54.46566252 11.40118766 56.03718667 11.42292023 57.60859299 C11.55737885 67.74171307 11.47792663 76.98898687 4.375 84.9375 C-5.0201495 90.67898025 -16.02049861 91.61793409 -26.6875 89.0625 C-30 88 -30 88 -32 87 C-32 83.7 -32 80.4 -32 77 C-30.55625 77.33 -29.1125 77.66 -27.625 78 C-19.57568105 79.58253937 -12.25406163 80.29322015 -5 76 C-1.1972305 71.05639965 -0.8748669 66.48988466 -0.79467773 60.39550781 C-0.78477814 59.74143448 -0.77487854 59.08736115 -0.76467896 58.41346741 C-0.73319149 56.26005626 -0.70835728 54.10662308 -0.68359375 51.953125 C-0.66301319 50.45667968 -0.64201643 48.96024004 -0.62062073 47.46380615 C-0.56551382 43.53147991 -0.51605453 39.59910219 -0.46777344 35.66668701 C-0.41747514 31.65144284 -0.36183261 27.63627311 -0.30664062 23.62109375 C-0.19919832 15.74745884 -0.09772264 7.87376151 0 0 Z " fill="#FEFDFC" transform="translate(75,21)"/>
<path d="M0 0 C0 0.99 0 1.98 0 3 C-0.7115625 3.61875 -0.7115625 3.61875 -1.4375 4.25 C-3.78147173 6.87524834 -3.67783296 9.58502942 -4 13 C-4.33 13 -4.66 13 -5 13 C-5.61538462 5.73846154 -5.61538462 5.73846154 -2.5 2 C-1.675 1.34 -0.85 0.68 0 0 Z " fill="#72492E" transform="translate(18,21)"/>
</svg>
